<svg xmlns="http://www.w3.org/2000/svg" viewBox="0 0 240 180" role="img">
  <defs>
    <linearGradient id="a" x1="58" y1="37" x2="181" y2="149" gradientUnits="userSpaceOnUse">
      <stop stop-color="#66D9F2"/>
      <stop offset=".5" stop-color="#6EA8FF"/>
      <stop offset="1" stop-color="#B18DF5"/>
    </linearGradient>
    <linearGradient id="b" x1="86" y1="60" x2="155" y2="132" gradientUnits="userSpaceOnUse">
      <stop stop-color="#173C5A"/>
      <stop offset="1" stop-color="#171E3A"/>
    </linearGradient>
  </defs>
  <path d="M34 137C52 115 71 104 91 105C111 106 127 126 148 124C168 122 184 106 204 79" fill="none" stroke="url(#a)" stroke-width="4" stroke-linecap="round" stroke-dasharray="5 8"/>
  <circle cx="34" cy="137" r="6" fill="#66D9F2"/>
  <circle cx="204" cy="79" r="6" fill="#B18DF5"/>
  <circle cx="120" cy="90" r="59" fill="url(#a)" opacity=".22"/>
  <circle cx="120" cy="90" r="49" fill="url(#b)" stroke="url(#a)" stroke-width="4"/>
  <path d="M91 79C97 75 104 74 111 77M129 77C136 74 143 75 149 79" fill="none" stroke="#9BEAFF" stroke-width="3.5" stroke-linecap="round"/>
  <ellipse cx="101" cy="91" rx="4.5" ry="6" fill="#F5FDFF"/>
  <ellipse cx="139" cy="91" rx="4.5" ry="6" fill="#F5FDFF"/>
  <circle cx="103" cy="90" r="2" fill="#6EA8FF"/>
  <circle cx="141" cy="90" r="2" fill="#6EA8FF"/>
  <path d="M101 112C107 118 113 121 120 121C127 121 133 118 139 112" fill="none" stroke="#83D8E9" stroke-width="4" stroke-linecap="round"/>
  <path d="M120 47L126 61L140 67L126 73L120 87L114 73L100 67L114 61Z" fill="none" stroke="#B5A0FF" stroke-width="2.5" opacity=".72"/>
  <circle cx="120" cy="67" r="4" fill="#F3EFFF"/>
  <path d="M73 46L84 57L100 36M158 38H182M158 49H176" fill="none" stroke="#6EA8FF" stroke-width="3.5" stroke-linecap="round" stroke-linejoin="round"/>
</svg>
